<?xml version="1.0" encoding="UTF-8"?>
<!DOCTYPE svg PUBLIC "-//W3C//DTD SVG 1.1//EN" "http://www.w3.org/Graphics/SVG/1.1/DTD/svg11.dtd">
<!-- Creator: CorelDRAW X6 -->
<svg xmlns="http://www.w3.org/2000/svg" xml:space="preserve" width="1000px" height="1000px" version="1.1" style="shape-rendering:geometricPrecision; text-rendering:geometricPrecision; image-rendering:optimizeQuality; fill-rule:evenodd; clip-rule:evenodd"
viewBox="0 0 1011 1011"
 xmlns:xlink="http://www.w3.org/1999/xlink">
 <defs>
  <style type="text/css">
   <![CDATA[
    .str1 {stroke:#0100A3;stroke-width:0.777846}
    .str0 {stroke:#0100A3;stroke-width:15.5569}
    .fil0 {fill:none}
    .fil1 {fill:#0100A3}
   ]]>
  </style>
 </defs>
 <g id="Plan_x0020_1">
  <metadata id="CorelCorpID_0Corel-Layer"/>
  <rect class="fil0 str0" x="8" y="8" width="996" height="996" rx="206" ry="197"/>
  <polygon class="fil1 str1" points="141,141 143,141 143,138 774,138 774,67 854,157 933,246 854,336 774,426 774,352 407,352 407,242 328,332 249,422 328,511 407,601 407,489 586,489 586,415 666,505 745,595 666,684 586,774 586,699 354,699 354,927 141,927 "/>
 </g>
</svg>
